<svg xmlns="http://www.w3.org/2000/svg" width="362.223" height="436.751" viewBox="0 0 362.223 436.751">
  <g id="Grupo_450" data-name="Grupo 450" transform="translate(-267.777 -309.249)">
    <path id="Trazado_564" data-name="Trazado 564" d="M1500.065,492.69l.749-.485-.751.27c-.019-1.53-.034-2.351-.034-2.351-.93.351-2.017.676-3.1,1-.1-1.066-.476-.678-.561-.928.023.462.057.8.093,1.079-2.365.685-5.118,1.3-8.143,1.877-2.258-.081-4.652-.172-4.392-.838-5.547,2.024-15.218.385-24.52,2.586-2.105-.095,1.75-.52.614-.719-2.354.707-5.246,1.016-10.632,1.069l.6-.163c-15.092.887-21.6.533-38.6.455l1.267.583a54.257,54.257,0,0,1-6.138-.347c-4.185.959,10.263-.064,6.455.979-4.858-1.088-25.785.131-29.057-1.306-5.624-.048,1.644.706-3.978.658l-1.488-.386-1.425.474c-3.688-.106-5.542-.614-5.676-.928.894.049,2.544-.057,3.5-.073-1.493-.157-3.369-.217-5.293-.231l-1.446,0-.527.021-.965.062a7.988,7.988,0,0,1-.324-1.569l.123,1.8.43.055-.491.018c-.166-.515-1.031-5.406-1.7-9.27-.69-4-1.395-8.088-2.1-12.155-1.409-8.133-2.86-16.177-4.448-23.252l-.09,1.159c-2.428-11.087-1.224-9-3.563-21.233l.144.435a80.08,80.08,0,0,1-1.943-9.027c.856,3.043-.363-5.939.695-1.935-2.627-12.025-1.462-5.921-3.867-13.747l.146-1.925a44.785,44.785,0,0,1-2.313-8.954c1.258,4.958.036-4.032,1.524,1.509-1.186-13.032-4.288-18.919-3.816-25.072-2.293-5.685,1.192,11.25.352,7.99.054,2.841-1.792-4.711-2.353-8.768-.674-4.114.444-7.266-1.348-17.594.212.994.237,1.118.448,2.108a46.288,46.288,0,0,0-1.03-5.826c-.2-1.014-.4-2.03-.6-3.094-.171-1.3-.348-2.653-.565-4.3-.075-1.111-1.564-1.271-2.378-1.849l-2.34-1.189c-1.269-.582-2.339-1-2.907-.666a35.289,35.289,0,0,1,4.823,2.186,2.369,2.369,0,0,1,1.657,1.254,5.928,5.928,0,0,0-.968-.613,34,34,0,0,0-4.594-1.894,75.95,75.95,0,0,0-11-2.917,20.259,20.259,0,0,1,5.416.435c-2.585-1.033-5.2-.933-8.029-1.377.422-.535,3.586-.393,7.27.462a47.606,47.606,0,0,1,5.634,1.752l2.667,1.039,1.233.516,1.6.753a13.429,13.429,0,0,0-1.62-1.009,16.29,16.29,0,0,0-1.538-.743c-1.1-.493-2.322-.89-3.351-1.244-2.089-.614-3.446-1.026-1.79-1.058-4.522,0-11.093-2.945-18.648-.122l.366-.689a45.627,45.627,0,0,0-5.615,2.232,27.049,27.049,0,0,1,3.6-2.158,63.829,63.829,0,0,0-8.433,3.928,17.445,17.445,0,0,0-2.051,1.248,9.416,9.416,0,0,0-2.1,2.288,13.347,13.347,0,0,0-2.021,4.594,13.9,13.9,0,0,1,3.21-5.947c1.033-.943,1.245-.946,1.208-.763s-.279.609-.158.676c.109.088.638-.346,1.763-.876a10.692,10.692,0,0,0-2.264,2.075,23.407,23.407,0,0,0-1.292,2.133c-.546,1.276-1.015,2.3-1.286,3.15-.679,1.712-1.044,2.761-1.553,3.89-.792,2.092-1.835,4.535-2.271,11.573.244-2.6.971-6.325.925-3.416-.427,3.085-.885,7.147-1.251,9.025-.182,10.717.643-1.62.885,2.946-.807,3.619.2,5.246.449,9.9l-.611.037c-.194,12.118,1.276,3.19,1.124,14.073l-1-4.569.408,5.665-.735-1.144a110.077,110.077,0,0,1,.856,14.119c.351-1.427,1.144.726,1.5,6.054-.12,3.659-.72-2-.124,5.553a15.208,15.208,0,0,1-.756-6.845c-.22-.324-.483-1.662-.7-2-.189,3.951.546,9.861.754,12.6-.052-1.056-.11-2.317-.07-2.97l1.67,10.886c-.086,1.74-.385.389-.671-.95.244,2.212.652,3.721.975,6.974-.569-.8-1.061-.555-1.674-5.152l1.433,10.38c-.157.715-.1,5.4-.411,4.064.234,5.807,2.3,14.07,2.714,21.749a17.528,17.528,0,0,1,.555,2.792c.279,3.572.548,7.013.825,10.559.27,3.218.9,8.531,1.276,8.823-.065.511-1.062-.119-1.406-.384-.525.075-.334.365.15.687.217.159.466.325.367.457-.051.065-.195.123-.492.165l-.611.051-1.813-.022c-7.883-.113-2.91-.906-5.662-1.294a82.14,82.14,0,0,1-17.978-.267c2.4-.047,4.272.179,6.511.226l-5.49-.771c6.685-.476,11.484.046,6.341-.909-.851,1.68-21.42-.9-22.266.776l-3.616-.544,2.24.046c-7.024-1.179-5.308.977-14.4.275-3.166-.291-5.367-.652-3.193-.748l-7.092.069c-2.055-.137-1.537-.409.509-.274l-10.791-.406.083-.046c-1.554.192-5.064.433-6.777.525-2.726-.385,1.385-.113.7-.363l-6,.115c-2.407-.567,2.568-.75,6.689-.478-5.477-2-4.98.182-16.954-1.426l5.65.066c-3.575-1.158-7.995-1.026-14.328-1.954,1.491.393,12.662,2.173,6.157,2.274a44.1,44.1,0,0,0-7.74-.234c.007-.612-3.415-.634-7.689-.815l.345-.794-3.335.037c-1.157.019-1.953.064-2.625.119-1.32.114-2.169.269-4.143.357-.1,3.908-.154,6.382-.384,8.135a9.15,9.15,0,0,1-.741,2.341c.047,8.28.882-5.734,1.247,4.055a158.713,158.713,0,0,0,1.07,19.912c-.122,4.821-.523-.823-.7.91l.8,4.242c.023,1.044-.187.714-.295.546.385,3.583.814.267,1.253,5.9.948,1.484-.837,11.647.53,18.588-.144,1.733-.537-.807-.825-.266,1.138,9.554.907,8.2,2.23,16.012l-.122,6.732c.314-4.961,1.389,1.288,2.357,6.749.027-.29.048-.519.073-.793.043.643.088,1.293.131,1.939-.07-.393-.131-.738-.2-1.146-.031.323-.065.666-.1,1,.137.451.254.842.379,1.258.1,1.449.191,2.887.3,4.345-.243.017-.594-1.07-.958-2.406l.284-3.2c-.638-2.135-1.32-4.13-1.763-3.647a27.955,27.955,0,0,1,.415,2.867c-.172-.559-.316-.914-.379-.645a13.218,13.218,0,0,0,.48,2.633l-.765,2.06.391.46.284,11.542c1.583,8.155,3.467,15.19,5.2,28.15-.993-3.158-1.148-.581-1.947-.674.438-3.637-1.369-10.058-1.806-16.838.228,3.535-.208,2.793-.424,1.907l1.9,11.985c-.667-.207-.214,2.607-.152,5.785.994-2.512,1.819,8.885,2.85,13.723-.37.357-1.006-.758-1.581-6.749-.2,6.716,2.533,8.326,2.574,14.884a10.847,10.847,0,0,0-.542-2.793c.812,3.349,1.777,11.685,1.11,9.792l-.221-1.449c1.1,9.7,5.317,29.317,6.967,30.407-.11.131-1.581-.925-1.943-1.453,1.763,3.589,3.6,7.106,5.554,10.532.638,1.966,1.3,3.8,1.978,5.515-.67,1.034-1.354,2.531-3.73-2.723a40.108,40.108,0,0,0,4.1,9.6c-.612-1.574-.559-4.259.472-2.3a19.978,19.978,0,0,0,1.962,5.079,18.507,18.507,0,0,0,3.6,4.955c-.572-.91,2.342.237,5.354,1.13-.648.046-.144,1.446-1.573,1.2,3.3.331,6.491,1.03,9.661.952-2.357-.151-.656,1.111,1.363,1.874-.919-.436,8.066,1.484,10.568,1.5l-3.9-.809c10.5,1.48,10.6-.62,20.981.324-1.281.183-3.278,1.529,2.014,2.177,1.324-.233,4.369-.981,8.282-1.633,3.766.259,7.624.5,11.638.722-5.029.66-10.73,1.273-14.626,1.52,3.915.582,1.063.56,6.966.9,2.061.524-3.257.387-5,.3l13.74,1.114c-.565-.878,10.556-.385,10.061-1.117-4.985.047-9.974.208-14.967.137-.549-.839,8.756-1.911,18.461-1.367,2.46.449-1.91,1.433-1.721,1.725a84.631,84.631,0,0,1,10.147.017l-4.146.339c5.413.472,8.878-.881,15.369.113,2.244.142,6.693,1.215,7.091.723-2.2-.614-3.173-1.922-3.173-3.042q3.733.073,7.5.124l-.3.3,1.474.009-.044-.291c2.6.032,5.21.054,7.825.072.742.731-6,1.522-3.25,2.13a11.136,11.136,0,0,1,3.036-.573c2.359.214-.982.743,4.148.634.859-.865,10.43.052,2.426-.734,5.015-.257,5.33.166,11.22.117-1.238-.359,1.465-1.066,4.876-1.615q3.3-.035,6.59-.088l.2.048c10.269-.054,15.79.137,25.367-.192.89.179,5.522.275,3.569.713a45.836,45.836,0,0,1,5.576-.739c5.752.443-6.58.466-2.182,1.131.351-.521,7.61-1.1,11.8-1.633-1.339-.705-9.719.367-13.921.9-.021-.364.869-.783,2.377-1.214,10.882-.5,21.259-1.157,30.791-2,7.007-.278,24.232-2.447,34.172-4.189,1.256-.424,3.084-.976,3.8-1.3.73-.178,1.522-.348,2.208-.533,4.5-1.209,8.536-4.088,12.191-8.25-.02.02-.032.046-.053.066.022-.023.039-.052.062-.075.317-.36.625-.751.935-1.132.8-.961,1.59-1.935,2.4-2.9l-1.048,1.185c-.327.4-.663.8-.974,1.214a73,73,0,0,0,9.8-17.617c.035.156.111.223.265.112l1.578-4.809c.066-.18.139-.339.2-.52.073.206-.322,1.764.327.442a5.069,5.069,0,0,1,.231-2.108q1.329-3.829,2.541-7.949c.048-.118.092-.24.141-.358.022-.114.019-.172.037-.278.634-2.183,1.262-4.384,1.85-6.674.074-.225.163-.516.276-.916l.274-1.37c14.921-60.431,14.593-153.386,14.4-169.849" transform="translate(-902.946 19.438)" fill="#212120"/>
    <path id="Trazado_565" data-name="Trazado 565" d="M1633.412,334.662c-1.552.417-5.774,1.01-6.608.162l-.233.916c-6.037.7-.623-1.9-8.037-1.2l1.6.135c-1.394.172-2.419.916-4,.9-.505-.17.465-.46,1.037-.763-1.963.763-3.919,1.417-5.792,2.329-.364-.458-.206-.781.908-1.455-5.481,1.339,1.439,1.3-5.259,2.621-1.291-.028.266-.671,1.068-1.2-3.263.144-5.178,1.388-8.055,3.006-.328-.741,1.763-1.393-.983-.956.664.212,1.221.761-.7,1.54.637-1.135-1.629.181-3.572.807.491.1.5.511-.173.949-.865.486-1.757.565-2.977,1.226.861-.113,1.7-.262,2.563-.337-2.78,2.173-5.053,1.937-7.521,2.953a2.889,2.889,0,0,1,.908-.846c-2.609,1.015-5.448,1.951-8.038,4.455l.193-.254c-5.01,4.4,2.387-.032-3.438,4.938-2.017,1.3-.793-2.724-4.513,1.264.871-.244.705.406-.116,1.556-.85,1.146-2.516,2.935-3.714,4.215a34.139,34.139,0,0,0,2.338-4.03c-.574.437-1.731,2.041-2.021,2.081l-.174.605c-.878,2.33-2.336,2.115-4.137,4.38a51.353,51.353,0,0,0,5.856-9.284c-.331.612-.729,1.282-1.177,1.973a14.08,14.08,0,0,1-1.219,1.705c-.409.389-.413-.13.006-1.244a5.371,5.371,0,0,0,1.757-1.7c.322-.709-.166-.061-.6-.905a4.525,4.525,0,0,1-.4-.759l-.268-2.188c-.19-1.395-.376-2.755-.535-3.92.886,1.317,1.483-.623,2.128,1.517a25.678,25.678,0,0,0-.158-5.658l1.209,1.6c-1.271-2.331-.6-4.9-2.086-4.415a2.6,2.6,0,0,1,.41,1.6c-.462-.121-1.439-1.029-1.511-3.859.275-1.966.635,1.064,1.032.486-.65-1.783.133-1.995-.631-3.823l-.3,1.771c-1.116-1.175-.657-3.075-1.453-4.823.809,2.12,1.16,1.319,1.5.367l-.086.145c-.33-1.355-1.286-2.995-.993-4.057l1.409.857a13.618,13.618,0,0,0-1.365-1.771c-.107-.771.12-1.425.767-.243-1.388-6.3-2.41.948-4.064-7.226.466-.042,1.053.711,1.535,2.937.806.1,1.03-.569.529-2.832.037-.058.083-.041.122-.062-1.686-4.029-4.025-9.3-6.275-11.28-.16-.9.578-.262,1.315.374-2.18-4.326-3.72-5.26-6.043-9.694l.991,2.16a41.082,41.082,0,0,1-7.167-9.643l.8.5c-2.436-1.945-4.6-6.426-5.986-6.93.552,1.188-.5.385.533,2.057-1.955-1.693-3.782-3.5-5.819-5.07l.463-1.275-3.17-2.546c.424,1.007-3.727-3.956-4.585-3.154-1.407-1.878,1.321-.064,2.259.141-1.942-1.255-1.736-1.862-3.827-2.685l-1.036-2.279c-1.668-1.106-3.422-2.117-5.132-3.153.3.106.053-.184.341-.086a17.345,17.345,0,0,1-3.019-1.829l-1.744-1.277c-.3-.4-.637-.112-.972.089l-1.013.587c-3.214,1.923-4.314,2.66-5.436,4.282.12-.142.049-.159.053-.245-1.194,1.636-5.376,3.74-6.827,4.684-2.353,1.983-.408,1.582-.246,2.025-7.246,4.984-4.831,3.629-9.633,9.243-4.156,2.059,2.423-5.137-2.415-2-.079,1.046-2.559,4.169-5.393,7.574-1.554,1.542-3.38,3.356-5.333,5.295a72.625,72.625,0,0,1-5.141,5.5l.974.144c-1.008,1.64-1.7,3.476-2.552,5.192l.536-3.508c-.212.966-1.182,3.779-1.754,5.643-1.947,5.672-3.217,2.238-3.989,7.017l-.434.3c.2,1.7-1.693,5.208-2.583,9.664l-.663-1.848a25.44,25.44,0,0,1,1.158-2.741c-1.695,1.126-1.24,4.76-2.1,7.482-.378,3,.938,1.766.919,3.385-.256,1.04-.234,2.66-.715,3.435-.843,2.5-1.371.061-1.683-.854.663,2.433.487,3.188.338,8.234-.577.212-.775-.175-.8-.854a4.189,4.189,0,0,0,.627,2.6l-.74,1.661c-1.261,5.723,1.853,5.729,1.7,12.435-.7-1.76.453,5.789.118,7.91-.468-2.318-1.51,1.322-2.364-.021.278,5.522,1.537,2.014,2.531,6.317l-1.7-1.533c1.338,4.115.924.908,2.106,5.108-.631-1.1.012,1.965-.933-.48,1.077,5.576.78,4.137,1.877,9.014l1.42.05a3.844,3.844,0,0,1,.033,2.857c-.2-.661-.43-1.712-.576-1.573-.657,2.211,1.488,2.883,1.112,5.342.248-.66.642-1.432,1.318.508-1.009-.377.2,3.247-.047,3.495.131-1.425,1.662,4.108,2.654,4.036.259,2.441-.883-.469-1.355-.442,1.646,1.476,3.127,7.714,4.425,9.13-.062.068-.079.184-.131.2,1.6,2.036,3.414,5.792,6.517,9.772l-1.468-1.166c1.964,4.634,2.839,1.962,4.78,5.6-.691-.114.139,1.381.953,2.749.842,1.458,1.819,3.009.822,2.578l1.452,1.519c.177.409.533.15.877-.119l.945-.653a15.27,15.27,0,0,0,1.616-1.3q.687-.325,1.367-.65a6.244,6.244,0,0,1-.908.955c-.868.781-1.963,1.616-.057.91,1.391-.845,2.054-1.415,3.113-2.134l.829.267c-.065-.457,2.665-1.868,2.365-2.11.813.4,2.308.221,2.416.775,1.885-1.2,4.984-2.059,6.32-3.5l.315.231c1.239-2.2,5.8-3.548,6.019-5.309l1.568-.057c2.19-1.428,1.929-2.282,2.217-3.1,1.094-.674,2.191-1.349,3.242-2.026-.065.649,3.571-1.472,4.388-1.575,1.464-.936,5.567-4.017,6.264-5.416-1.261,1.8.156,1.527-2.887,3.767a3.325,3.325,0,0,0,1.486-.524c-1.923,3.254-3.835,7.481-5.452,10.634-1.118,1.04-1.009.052-.55-1.4-.777,2.233-1.937,4.58-2.868,6.805l-.8,2c-.3.766-.546,1.5-.747,2.164a15.041,15.041,0,0,0-.436,1.794,5.9,5.9,0,0,0,1.769.636c-2.028-.524,2.055,1.6,3.468,2.679.143-.248.612-.406.772-.27a73.873,73.873,0,0,1,11.3,5.323l-1.264-.153a39.2,39.2,0,0,0,8.932,3.215c.367.078.738.171,1.107.257,2.925,1.206,5.771,2.277,8.512,3.174.605.529-1.818.573.923,1.309a8.532,8.532,0,0,0,1.786-.478q1.582.47,3.125.873l-.31.516,1.9-.114a79.97,79.97,0,0,0,8.109,1.539l.179.026c10.814,1.433,19.89.123,27.5-3.182a3.858,3.858,0,0,1-1.077,1.294,10.114,10.114,0,0,0,4.191-2.8q1.121-.6,2.2-1.255a3.229,3.229,0,0,1,.831-.243c.088-.138.259-.341.409-.529a50.867,50.867,0,0,0,13.464-13.3,4.7,4.7,0,0,0,.865-.921c.168-.289.145-.393.039-.426.386-.574.768-1.15,1.138-1.738-.012.184-.025.368.036.436a13.573,13.573,0,0,0,2.323-4.5c17.178-31.791,14.734-80.109,14.443-84.9.191-.242.248-.468-.012-.653,1.337-.756,2.918-1.251-1.583-2.124" transform="translate(-1006.393 44.279)" fill="#71b52f"/>
    <path id="Trazado_566" data-name="Trazado 566" d="M1279.779,470.666c-1.482-.688-.832-2.915-2.34-3.049l.577-.767c-.385-1.085-1.221-.965-1.814-1.095-.149-.527-.317-1.054-.484-1.583.528,0,.146-1.786.412-2.229-.162-.752-1.221-2.77-2.06-3.061,1,.556,1.314-.194,2.021,1.325.867-1.327-1.21-2.273-1.919-3.983l.574-.264a4.167,4.167,0,0,0-3.551-2.037c-.068-.114-.15-.224-.219-.338.351-.246.718-.26,1.543-.081-.574-1.736-2.481-3.867-3.729-5.424.04-.842.547-.721,1.161-.333-1.7-1.335-3-3.7-4.909-3.652.734-.014-.3-.881-.707-1.58-.195.21-.554.386-.6.3a11.86,11.86,0,0,1-4.644-2.984l.675-.03c-1.59-1.293-3.1-1.421-4.617-1.8-1.019-.611-2.1-1.19-3.2-1.754-.188-.487,1.044-.633-.081-1.21-.453.075-.756.424-1.174.569-.377-.181-.8-.335-1.185-.508l.347-.567-1.028.274c-.986-.431-1.938-.881-2.989-1.275a7.751,7.751,0,0,0-1.07-.348,75,75,0,0,0-10.928-2.986,1.876,1.876,0,0,1,.756-.719,4,4,0,0,0-2.436.458c-.258-.044-.533-.079-.8-.122-.147-.09-.3-.117-.438-.344-.1.113-.316.131-.463.2q-3.808-.594-8.017-.923a1.117,1.117,0,0,0-.537-.277c-.161,0-.183.094-.168.219-.319-.023-.62-.057-.942-.078a.651.651,0,0,0,.208-.311,3.644,3.644,0,0,0-2.332.167,181.494,181.494,0,0,0-37.283,2.627.717.717,0,0,0-.567.03c-.816-.595-1.3-1.352-2.112.645.473.7,1.072,2.532.123,2.879l.906.115c.449,2.62-1.875.241-1.776,3.444l.275-.683c.068.6.678,1.06.408,1.745-.242.213-.387-.213-.6-.466l1.362,2.567a1.028,1.028,0,0,1-1.245-.44c.2,2.417,1.622-.588,1.464,2.37-.357.562-.569-.144-.9-.511-.678,1.428.146,2.3.758,3.643-.8.108-.8-.837-1.2.386.4-.281,1.074-.5,1.265.379-.865-.337-.347.727-.442,1.621a.537.537,0,0,1,.828.128c.181.407-.1.812.032,1.4l.658-1.166c.928,1.374-.061,2.364-.235,3.554a.8.8,0,0,1-.379-.466c-.15,1.24-.576,2.6.428,3.966l-.125-.108c1.349,2.654,1.145-1.119,2.55,1.961.09,1.093-2.705.07-1.185,2.33.42-1.331,1.955,1.2,2.69,2.463l-1.916-1.018c.127.572.843,1.422.773,1.771l.32-.166c1.256-.475.326,1.837,1.411,2.592-2.115-.688-1.791-.88-3.6-.587a5.31,5.31,0,0,1,2.9,3.385l-1.828-1.019c.486,2.542,3.54,4.6,5.387,5.962-1.157-.094-1.175.836-2.333.356.355.728.777,1.429,1.2,2.128l-1.332-.148c1.5.418,1.249,1.745,2.535.936-.3-.147-.44-.04-.6-.483a1.546,1.546,0,0,1,1.932.957c.03.917-.733-.175-1.012.224.9.435.01.948.816,1.466l.222-.952c1.018.114.7,1.17,1.473,1.668-.807-.662-1.093-.148-1.366.431l.074-.1c.347.5,1.266.879,1.04,1.492l-1.3.167,1.209.328c.038.37-.2.805-.686.426.837,2.787,2.126-1.416,3.191,2.181-.409.209-.888.048-1.214-.917-.7.267-.925.7-.584,1.684-.035.046-.074.054-.109.081,1.008,1.649,2.573,3.675,4.006,4.131-.008.506-.5.384-.994.259,1.008,2,2.368,1.73,3.371,3.887l-.416-1.071a7.883,7.883,0,0,1,3.895,3.784l-.506-.038c1.53.325,2.329,2.838,3.248,2.631-.232-.643.391-.493-.1-1.286l3.283,1.338-.459,1.178c.59.218,1.142.492,1.755.653-.151-.641,1.97,1.509,2.565.5.7.884-.811.625-1.381.861,1.085.179.941.7,2.111.523l.438,1.451c.935.158,1.891.235,2.819.347-.166.043-.04.177-.2.221,1.482-.426,2.718,1.79,4.734.656-.094.032-.088.088-.131.149,1.066-.574,2.869.586,3.569.977,1.366.173.785-.851.95-1.276,3.711,1.022,2.578.7,5.91.019,1.734,1.683-2.593,1.746-.26,3.123.427-.548,2.219-.966,4.169-1.05,1.733.694,4.7,1.119,6.448,1.975l-.181-.881,2.5-.508-1.4,1.3c.4-.3,1.656-.874,2.467-1.314,2.524-.953,1.586,1.809,3.5.3a1.542,1.542,0,0,1,.212.264c.59-.736,2.306-.639,4.223-1.067l-.542,1.188-1.3-.126c.81,1.03,2.1-.347,3.309-.522,1.218-.593.451-1.4,1.076-1.846.464-.026,1.088-.466,1.5-.208,1.165.159.341,1.3.061,1.831.78-1.308,1.135-1.215,3.191-2.033.218.519.107.783-.158.937a1.6,1.6,0,0,0,.911-1.041l.847.476c2.609.353,1.932-2.618,4.84-2.936-.614.759,2.416-.692,3.461-.248-.925.47.9,1.462.49,2.3,2.377-.286.547-1.565,2.295-2.368l-.348,1.583c1.594-1.125.222-.861,1.891-1.824-.378.539.905.118-.03.879l4.675-1.225-.5-1.271a3.14,3.14,0,0,1,2.213.007c-.431.171-1.164.366-.983.491,2.575.729.847-1.8,2.2-2.684-.491.23-1.112.273-.91-1.04.724.693,1.157-1.883,1.449-1.62-.65.478.054-1.988-.836-2.235.773-.953.6.417,1.041.544-.9-1,.32-3.678-.233-4.535a1.185,1.185,0,0,1,.2-.041c-.536-1.155-.572-3-1.456-5.188l.775.767c.367-2.2-1.624-1.366-1.594-3.151,1.123.365-.179-2.964,1.081-2.2a15.387,15.387,0,0,0-1.419-2.119c-.018-.265-.04-.533-.061-.8.539.368,1.154,1.536,1.3.514l-.7-1.482.576-.331c-.433-.021-.654-1.348-.992-1.237.688-.318,1.109-1,1.661-1.007-.328-.948.15-2.443-.655-3.146Z" transform="translate(-905.517 -13.699)" fill="#71b52f"/>
  </g>
</svg>
